<svg width="1920" height="265" viewBox="0 0 1920 265" fill="none" xmlns="http://www.w3.org/2000/svg">
<path d="M0.0100098 77.2605L1199.5 261.725C1219.48 266.368 1240.34 265.408 1259.8 258.923L1919.98 77.2605V42.103H0.0100098V77.2605Z" fill="#E7E5ED"/>
<path d="M1386.34 156.552L1491.57 197.294C1502.1 202.959 1514.24 204.91 1526.01 202.829L1920 84.2258V41.3523L1386.34 156.552Z" fill="#26D3A3"/>
<path d="M694.27 139.839L608.03 176.138C597.5 181.802 585.36 183.754 573.59 181.672L0 90.7709V41.3623L694.27 139.849V139.839Z" fill="#4D8BEE"/>
<path d="M0.0100098 67.3026L1199.5 252.517C1219.48 257.161 1240.34 256.2 1259.8 249.715L1919.98 67.3026V0H0.0100098V67.3026Z" fill="#1D005D"/>
<g filter="url(#filter0_d_262_2)">
<path d="M1232.08 131.183C1230 143.632 1222.51 153.98 1218.74 158.534C1218.34 158.054 1217.95 157.603 1217.59 157.173C1217.56 157.133 1217.52 157.103 1217.49 157.063C1216.45 155.842 1215.55 154.781 1214.81 153.89C1214.85 154.121 1214.9 154.351 1214.94 154.571C1214.85 154.291 1214.76 154 1214.66 153.7C1212.87 151.579 1211.98 150.488 1211.98 150.418V150.378C1212.45 150.378 1212.93 150.348 1213.41 150.278C1213.68 150.238 1213.96 150.197 1214.24 150.137C1215.35 149.907 1216.48 149.517 1217.64 148.957C1218.09 148.776 1218.55 148.506 1219.01 148.146C1219.64 147.666 1220.29 147.005 1220.95 146.194C1221.82 144.783 1222.3 143.582 1222.38 142.582H1226.14C1226.14 142.582 1226.83 141.611 1228.12 139.669C1228.12 139.629 1228.08 139.599 1228.01 139.579H1222.23C1221.96 138.328 1221.46 137.267 1220.71 136.397H1226.13C1226.28 136.267 1226.96 135.286 1228.16 133.444V133.404H1207.86C1207.86 133.404 1207.15 134.365 1205.86 136.297V136.407H1211.22C1212.02 136.407 1212.91 136.547 1213.9 136.847C1214.02 136.887 1214.14 136.917 1214.26 136.957C1215.84 137.578 1216.9 138.438 1217.45 139.559V139.599H1207.87C1207.87 139.599 1207.16 140.57 1205.82 142.511C1205.82 142.572 1205.85 142.602 1205.9 142.602H1217.97C1217.97 143.052 1217.88 143.492 1217.72 143.913C1217.07 145.644 1215.81 146.855 1213.94 147.555C1213.48 147.726 1212.97 147.866 1212.43 147.976C1211.53 148.156 1210.53 148.246 1209.42 148.246C1208.48 148.246 1207.66 148.196 1206.95 148.096L1206.91 148.206V149.877C1203.05 144.293 1199.23 136.967 1198.05 128.731C1197.86 127.41 1197.73 126.069 1197.69 124.708C1197.47 118.152 1199.1 111.928 1201.4 106.503C1206.25 95.0744 1214.12 87.1982 1214.12 87.1982C1214.12 87.1982 1223.64 95.7249 1229.03 108.285C1231.01 112.908 1232.43 118.072 1232.61 123.557C1232.7 126.169 1232.5 128.731 1232.08 131.203V131.183Z" fill="url(#paint0_linear_262_2)"/>
<path d="M1217.45 139.589H1213.73C1213.76 138.678 1213.82 137.768 1213.9 136.837C1214.02 136.877 1214.14 136.907 1214.26 136.947C1215.84 137.567 1216.9 138.428 1217.45 139.549V139.589Z" fill="url(#paint1_linear_262_2)"/>
<path d="M1213.95 147.535C1213.81 145.964 1213.71 144.303 1213.69 142.592H1217.98C1217.98 143.042 1217.89 143.482 1217.73 143.903C1217.08 145.634 1215.82 146.845 1213.95 147.545V147.535Z" fill="url(#paint2_linear_262_2)"/>
<path d="M1253.46 121.545C1252.9 126.679 1251.54 132.043 1248.86 137.027C1241.58 150.558 1226.6 157.413 1219.91 159.905C1219.51 159.435 1219.12 158.974 1218.75 158.534C1218.35 158.054 1217.96 157.603 1217.6 157.173C1217.57 157.133 1217.53 157.103 1217.5 157.063C1216.46 155.842 1215.56 154.781 1214.82 153.89C1214.61 152.739 1214.41 151.488 1214.24 150.147C1215.35 149.917 1216.48 149.527 1217.64 148.966C1218.09 148.786 1218.55 148.516 1219.01 148.156C1219.64 147.675 1220.29 147.015 1220.95 146.204C1221.82 144.793 1222.3 143.592 1222.38 142.591H1226.14C1226.14 142.591 1226.83 141.621 1228.12 139.679C1228.12 139.639 1228.08 139.609 1228.01 139.589H1222.23C1221.96 138.338 1221.46 137.277 1220.71 136.407H1226.13C1226.28 136.277 1226.96 135.296 1228.16 133.454V133.414H1214.31C1214.74 130.692 1215.42 127.93 1216.43 125.238C1217.01 123.687 1217.69 122.155 1218.49 120.664C1221.19 115.65 1224.98 111.567 1229.01 108.285C1239.25 99.9681 1251.11 96.8257 1251.11 96.8257C1251.11 96.8257 1254.87 108.445 1253.44 121.555L1253.46 121.545Z" fill="url(#paint3_linear_262_2)"/>
<path d="M1277.02 123.016C1277.02 123.016 1272.68 146.184 1255.98 156.672C1244.21 164.078 1229.43 163.207 1221.74 162.047C1221.1 161.296 1220.49 160.585 1219.91 159.905C1219.51 159.435 1219.12 158.974 1218.75 158.534C1218.35 158.053 1217.96 157.603 1217.6 157.173C1217.57 157.133 1217.53 157.103 1217.5 157.063C1217.63 156.592 1217.78 156.092 1217.94 155.551C1217.94 155.551 1217.94 155.551 1217.94 155.541C1218.99 152.079 1220.71 147.375 1223.37 142.591H1226.14C1226.14 142.591 1226.83 141.621 1228.12 139.679C1228.12 139.639 1228.08 139.609 1228.01 139.589H1225.16C1227.06 136.637 1229.35 133.734 1232.08 131.182C1233.69 129.671 1235.46 128.28 1237.39 127.069C1242.44 123.887 1248.07 122.265 1253.46 121.545C1265.87 119.884 1277.02 123.016 1277.02 123.016Z" fill="url(#paint4_linear_262_2)"/>
<path d="M1206.92 150.988C1206.92 150.988 1209.64 154.211 1215.08 160.566C1209.83 158.864 1192.15 152.189 1183.91 137.197C1181.14 132.163 1179.73 126.739 1179.14 121.545C1177.63 108.435 1181.28 96.8257 1181.28 96.8257C1181.28 96.8257 1191.63 99.4577 1201.41 106.483C1206.29 109.986 1211.03 114.58 1214.27 120.474C1215.12 122.025 1215.84 123.617 1216.45 125.218C1217.47 127.92 1218.16 130.672 1218.61 133.394H1207.88C1207.88 133.394 1207.17 134.355 1205.88 136.287V136.397H1211.24C1212.04 136.397 1212.93 136.537 1213.92 136.837C1214.04 136.877 1214.16 136.907 1214.28 136.947C1215.86 137.568 1216.92 138.428 1217.47 139.549V139.589H1207.89C1207.89 139.589 1207.18 140.56 1205.84 142.501C1205.84 142.561 1205.87 142.591 1205.92 142.591H1217.99C1217.99 143.042 1217.9 143.482 1217.74 143.902C1217.09 145.634 1215.83 146.845 1213.96 147.545C1213.5 147.715 1212.99 147.856 1212.45 147.966C1211.55 148.146 1210.55 148.236 1209.44 148.236C1208.5 148.236 1207.68 148.186 1206.97 148.086L1206.93 148.196V151.008L1206.92 150.988Z" fill="url(#paint5_linear_262_2)"/>
<path d="M1219.01 148.156C1218.75 150.978 1218.34 153.5 1217.94 155.542C1217.94 155.542 1217.94 155.542 1217.94 155.552C1217.82 156.132 1217.71 156.672 1217.6 157.173C1217.57 157.133 1217.53 157.103 1217.5 157.063C1216.46 155.842 1215.56 154.781 1214.82 153.89C1214.86 154.12 1214.91 154.351 1214.95 154.571C1214.86 154.291 1214.77 154 1214.67 153.7C1212.88 151.578 1211.99 150.488 1211.99 150.418V150.378C1212.46 150.378 1212.94 150.347 1213.42 150.277C1213.69 150.237 1213.97 150.197 1214.25 150.137C1215.36 149.907 1216.49 149.517 1217.65 148.956C1218.1 148.776 1218.56 148.506 1219.02 148.146L1219.01 148.156Z" fill="url(#paint6_linear_262_2)"/>
<path d="M1215.59 161.156C1214.93 161.306 1213.97 161.516 1212.77 161.726C1212.63 161.756 1212.48 161.777 1212.34 161.807C1211.62 161.927 1210.82 162.047 1209.96 162.167C1209.67 162.207 1209.37 162.247 1209.06 162.277C1200.97 163.248 1187.87 163.388 1177.18 156.733C1160.43 146.314 1155.98 123.176 1155.98 123.176C1155.98 123.176 1166.88 120.054 1179.14 121.545C1184.65 122.216 1190.43 123.807 1195.63 127.039C1196.47 127.56 1197.28 128.12 1198.06 128.701C1202.15 131.773 1205.4 135.616 1207.97 139.579H1207.88C1207.88 139.579 1207.17 140.55 1205.83 142.491C1205.83 142.551 1205.86 142.581 1205.91 142.581H1209.77C1210.79 144.403 1211.68 146.214 1212.44 147.946C1211.54 148.126 1210.54 148.216 1209.43 148.216C1208.49 148.216 1207.67 148.166 1206.96 148.066L1206.92 148.176V150.988C1206.92 150.988 1208.66 153.06 1212.13 157.123C1212.2 157.213 1212.28 157.303 1212.36 157.393C1212.44 157.483 1212.52 157.573 1212.59 157.663C1213.34 158.544 1214.17 159.515 1215.08 160.566C1215.25 160.766 1215.42 160.956 1215.59 161.166V161.156Z" fill="url(#paint7_linear_262_2)"/>
<path d="M1211.98 150.378C1212.45 150.378 1212.93 150.348 1213.41 150.278C1213.89 151.479 1214.3 152.629 1214.66 153.7C1212.87 151.579 1211.98 150.488 1211.98 150.418V150.378Z" fill="url(#paint8_linear_262_2)"/>
<path d="M1221.86 170.959L1216.49 165.588L1211.13 170.959L1216.49 176.33L1221.86 170.959Z" fill="#45A6FF"/>
<path d="M1232.77 138.048C1232.63 137.978 1232.45 138.008 1232.34 138.128C1232.2 138.278 1232.21 138.518 1232.36 138.658C1232.51 138.799 1232.75 138.788 1232.89 138.638C1233 138.518 1233.01 138.338 1232.94 138.198L1233.37 137.728C1233.51 137.798 1233.69 137.768 1233.8 137.648C1233.94 137.497 1233.93 137.257 1233.78 137.127C1233.63 136.987 1233.39 136.997 1233.25 137.147C1233.14 137.267 1233.12 137.447 1233.2 137.588L1232.77 138.058V138.048Z" fill="white"/>
<path d="M1230.27 137.377C1230.07 137.307 1229.83 137.357 1229.67 137.527C1229.46 137.758 1229.48 138.108 1229.7 138.318C1229.93 138.528 1230.28 138.508 1230.49 138.288C1230.65 138.118 1230.68 137.878 1230.59 137.678L1232.28 135.836C1232.48 135.906 1232.72 135.856 1232.88 135.686C1233.09 135.456 1233.07 135.106 1232.85 134.895C1232.62 134.685 1232.27 134.705 1232.06 134.925C1231.9 135.096 1231.87 135.336 1231.96 135.536L1230.27 137.377Z" fill="white"/>
<path d="M1228.26 137.718C1228.19 137.798 1228.23 137.758 1228.26 137.718V137.718Z" fill="white"/>
<path d="M1230.29 136.607C1230.43 136.457 1230.42 136.217 1230.27 136.076C1230.12 135.936 1229.88 135.946 1229.74 136.096C1229.63 136.217 1229.62 136.397 1229.69 136.537L1228.69 137.628C1228.55 137.558 1228.37 137.588 1228.26 137.708C1228.12 137.858 1228.13 138.098 1228.28 138.238C1228.43 138.378 1228.67 138.368 1228.81 138.218C1228.92 138.098 1228.94 137.918 1228.86 137.778L1229.86 136.687C1230 136.757 1230.18 136.727 1230.29 136.607Z" fill="white"/>
<path d="M1230.1 132.203C1230.15 132.143 1230.2 132.093 1230.1 132.203V132.203Z" fill="white"/>
<path d="M1227.05 142.841C1227.05 142.841 1227.15 142.901 1227.21 142.901L1234.42 142.581C1234.51 142.781 1234.72 142.911 1234.95 142.901C1235.26 142.891 1235.5 142.631 1235.48 142.321C1235.47 142.011 1235.21 141.771 1234.9 141.791C1234.67 141.791 1234.48 141.951 1234.4 142.151L1227.28 142.461L1226.65 141.881C1226.55 142.021 1226.47 142.141 1226.4 142.241L1227.05 142.841Z" fill="white"/>
<path d="M1230.32 133.104C1230.48 133.164 1230.66 133.144 1230.8 133.044C1230.64 133.214 1230.61 133.454 1230.7 133.654L1225.36 139.489C1225.36 139.489 1225.32 139.539 1225.32 139.569H1228.03C1228.1 139.589 1228.14 139.609 1228.14 139.659C1228.12 139.689 1228.1 139.719 1228.08 139.749L1233.71 139.499C1233.8 139.699 1234.01 139.829 1234.24 139.819C1234.55 139.809 1234.79 139.549 1234.77 139.239C1234.76 138.929 1234.5 138.688 1234.19 138.708C1233.96 138.708 1233.77 138.869 1233.69 139.069L1226.04 139.399L1231.03 133.955C1231.23 134.025 1231.47 133.975 1231.63 133.805C1231.84 133.574 1231.82 133.224 1231.6 133.014C1231.41 132.834 1231.13 132.824 1230.92 132.954C1230.92 132.954 1230.93 132.954 1230.93 132.944C1231.14 132.714 1231.12 132.363 1230.9 132.153C1230.67 131.943 1230.32 131.963 1230.11 132.183C1229.95 132.353 1229.92 132.594 1230.01 132.794L1223.82 139.559C1223.82 139.559 1223.82 139.569 1223.82 139.579H1224.41L1230.34 133.094L1230.32 133.104Z" fill="white"/>
<path d="M1227.15 141.5C1227.32 141.5 1227.45 141.38 1227.49 141.22L1231.42 141.05C1231.47 141.2 1231.62 141.3 1231.78 141.3C1231.99 141.3 1232.14 141.12 1232.13 140.91C1232.13 140.71 1231.95 140.55 1231.74 140.56C1231.57 140.56 1231.44 140.68 1231.4 140.84L1227.47 141.01C1227.44 140.94 1227.4 140.88 1227.34 140.84C1227.19 141.07 1227.05 141.27 1226.93 141.45C1226.99 141.49 1227.06 141.51 1227.14 141.5H1227.15Z" fill="white"/>
<path d="M1216.13 143.422C1216.28 143.562 1216.52 143.552 1216.66 143.402C1216.8 143.252 1216.79 143.012 1216.64 142.872C1216.52 142.762 1216.34 142.752 1216.2 142.822L1215.94 142.582H1215.62L1216.06 142.982C1215.99 143.122 1216.02 143.302 1216.14 143.412L1216.13 143.422Z" fill="white"/>
<path d="M1214.59 143.492C1214.74 143.632 1214.98 143.622 1215.12 143.472C1215.26 143.322 1215.25 143.082 1215.1 142.942C1214.98 142.832 1214.8 142.822 1214.66 142.902L1214.32 142.592H1214L1214.51 143.062C1214.44 143.202 1214.47 143.382 1214.59 143.492Z" fill="white"/>
<path d="M1212.87 130.962L1215.55 128.03C1215.69 128.1 1215.87 128.07 1215.98 127.95C1215.91 128.02 1215.95 127.99 1215.98 127.95C1216.01 127.91 1216.05 127.87 1215.98 127.95C1216.12 127.8 1216.11 127.56 1215.96 127.43C1215.81 127.29 1215.57 127.3 1215.43 127.45C1215.32 127.57 1215.3 127.75 1215.38 127.89L1212.66 130.852C1212.66 130.852 1212.63 130.902 1212.63 130.932L1212.74 133.414H1212.96L1212.85 130.972L1212.87 130.962Z" fill="white"/>
<path d="M1212.95 137.177L1215.57 139.579H1215.89L1213.12 137.047L1213.1 136.627C1213.03 136.607 1212.95 136.597 1212.88 136.577L1212.9 137.097C1212.9 137.097 1212.91 137.157 1212.94 137.177H1212.95Z" fill="white"/>
<path d="M1217.58 132.614C1217.73 132.564 1217.83 132.413 1217.83 132.253C1217.83 132.053 1217.65 131.893 1217.44 131.903C1217.24 131.903 1217.08 132.083 1217.08 132.293C1217.08 132.463 1217.2 132.594 1217.36 132.634L1217.39 133.414H1217.61L1217.58 132.624V132.614Z" fill="white"/>
<path d="M1216.02 132.323C1216.02 132.323 1216.01 132.263 1215.99 132.243L1214.64 131.002C1214.71 130.862 1214.68 130.682 1214.56 130.572C1214.41 130.432 1214.17 130.442 1214.03 130.592C1213.89 130.742 1213.9 130.982 1214.05 131.112C1214.17 131.223 1214.35 131.243 1214.49 131.162L1215.81 132.373L1215.85 133.394H1216.07L1216.02 132.313V132.323Z" fill="white"/>
<path d="M1214.57 137.147H1214.7C1214.62 137.107 1214.54 137.077 1214.46 137.037C1214.46 137.047 1214.46 137.067 1214.46 137.077C1214.48 137.117 1214.52 137.137 1214.56 137.137L1214.57 137.147Z" fill="white"/>
<path d="M1214.55 130.572C1214.48 130.502 1214.51 130.542 1214.55 130.572V130.572Z" fill="white"/>
<path d="M1219.05 133.364C1219 133.364 1218.95 133.374 1218.91 133.394H1219.22C1219.17 133.374 1219.11 133.354 1219.05 133.364Z" fill="white"/>
<path d="M1214.61 132.904C1214.81 132.814 1214.94 132.604 1214.93 132.373C1214.92 132.063 1214.66 131.823 1214.35 131.843C1214.04 131.853 1213.8 132.113 1213.82 132.423C1213.83 132.654 1213.98 132.844 1214.18 132.924L1214.2 133.404H1214.64L1214.62 132.904H1214.61Z" fill="white"/>
<path d="M1223.99 142.712L1222.36 142.782C1222.36 142.852 1222.34 142.932 1222.33 143.002L1224.11 142.922C1224.17 142.922 1224.22 142.872 1224.21 142.812V142.592H1223.98V142.712H1223.99Z" fill="white"/>
<path d="M1222.37 139.589L1222.2 139.429C1222.21 139.479 1222.23 139.529 1222.24 139.589H1222.37Z" fill="white"/>
<path d="M1217.92 143.192C1217.93 143.112 1217.95 143.042 1217.95 142.962L1217.55 142.592H1217.23L1217.86 143.162C1217.86 143.162 1217.9 143.192 1217.93 143.192H1217.92Z" fill="white"/>
<path d="M1229.49 131.513C1229.42 131.583 1229.46 131.553 1229.49 131.513V131.513Z" fill="white"/>
<path d="M1229.5 131.513C1229.53 131.473 1229.57 131.433 1229.5 131.513V131.513Z" fill="white"/>
<path d="M1228.17 133.444C1227.98 133.744 1227.8 134.015 1227.63 134.265L1229.61 132.103C1229.75 132.173 1229.93 132.143 1230.04 132.023C1230.18 131.873 1230.17 131.633 1230.02 131.493C1229.87 131.353 1229.63 131.363 1229.49 131.513C1229.38 131.633 1229.37 131.813 1229.45 131.953L1228.13 133.404H1228.17V133.444Z" fill="white"/>
<path d="M1227.13 135.195C1227.21 135.105 1227.24 134.995 1227.22 134.885C1227.12 135.035 1227.02 135.176 1226.94 135.306C1227.01 135.286 1227.08 135.255 1227.14 135.195H1227.13Z" fill="white"/>
<path d="M1225.23 132.033L1227.92 131.913C1227.97 132.063 1228.12 132.163 1228.28 132.163C1228.48 132.163 1228.64 131.983 1228.64 131.773C1228.64 131.573 1228.46 131.413 1228.25 131.423C1228.08 131.423 1227.95 131.543 1227.91 131.703L1225.17 131.823C1225.17 131.823 1225.11 131.833 1225.09 131.863L1223.67 133.414H1223.97L1225.23 132.043V132.033Z" fill="white"/>
<path d="M1225.5 133.194C1225.35 133.054 1225.11 133.064 1224.97 133.214C1224.92 133.264 1224.89 133.334 1224.88 133.394H1225.61C1225.6 133.314 1225.56 133.244 1225.5 133.184V133.194Z" fill="white"/>
<path d="M1224.97 133.214C1224.9 133.284 1224.94 133.254 1224.97 133.214V133.214Z" fill="white"/>
<path d="M1226.21 129.341C1226.35 129.411 1226.53 129.381 1226.64 129.261C1226.78 129.111 1226.77 128.871 1226.62 128.731C1226.47 128.591 1226.23 128.601 1226.09 128.751C1225.98 128.871 1225.96 129.051 1226.04 129.191L1222.31 133.274C1222.17 133.204 1221.99 133.234 1221.88 133.354C1221.87 133.374 1221.85 133.384 1221.84 133.404H1222.48L1226.2 129.341H1226.21Z" fill="white"/>
<path d="M1226.65 129.251C1226.68 129.211 1226.72 129.181 1226.65 129.251V129.251Z" fill="white"/>
<path d="M1222.25 131.723C1222.11 131.653 1221.93 131.683 1221.82 131.803C1221.68 131.953 1221.69 132.193 1221.84 132.333C1221.99 132.474 1222.23 132.464 1222.37 132.313C1222.48 132.193 1222.5 132.013 1222.42 131.873L1225.26 128.771C1225.4 128.841 1225.58 128.811 1225.69 128.691C1225.83 128.54 1225.82 128.3 1225.67 128.16C1225.52 128.02 1225.28 128.03 1225.14 128.18C1225.03 128.3 1225.01 128.48 1225.09 128.621L1222.25 131.723Z" fill="white"/>
<path d="M1222.93 127.069C1222.98 127.009 1223.03 126.969 1222.93 127.069V127.069Z" fill="white"/>
<path d="M1227.17 132.984C1226.94 132.774 1226.59 132.794 1226.38 133.014C1226.28 133.124 1226.24 133.254 1226.24 133.394H1227.35C1227.35 133.244 1227.29 133.094 1227.17 132.984Z" fill="white"/>
<path d="M1223.74 136.417L1220.96 136.537V136.397H1220.72C1220.87 136.577 1221.01 136.767 1221.15 136.957L1223.85 136.837C1223.91 136.837 1223.96 136.807 1224 136.767L1224.34 136.387H1223.74V136.417Z" fill="white"/>
<path d="M1220.7 130.662L1223.16 127.98C1223.36 128.05 1223.6 128 1223.76 127.83C1223.97 127.6 1223.95 127.249 1223.73 127.039C1223.5 126.829 1223.16 126.849 1222.95 127.069C1222.79 127.239 1222.77 127.48 1222.85 127.68L1220.33 130.432C1220.33 130.432 1220.27 130.532 1220.27 130.592L1220.39 133.404H1220.83L1220.71 130.662H1220.7Z" fill="white"/>
<path d="M1222.93 127.069C1222.83 127.179 1222.88 127.129 1222.93 127.069V127.069Z" fill="white"/>
<path d="M1219.09 130.312C1218.95 130.242 1218.77 130.272 1218.66 130.392C1218.52 130.542 1218.53 130.782 1218.68 130.922C1218.83 131.062 1219.07 131.052 1219.2 130.902C1219.31 130.782 1219.33 130.602 1219.25 130.462L1221.73 127.76C1221.87 127.83 1222.05 127.8 1222.16 127.68C1222.3 127.53 1222.29 127.29 1222.14 127.159C1221.99 127.019 1221.75 127.029 1221.61 127.179C1221.5 127.3 1221.48 127.48 1221.56 127.62L1219.08 130.322L1219.09 130.312Z" fill="white"/>
<path d="M1218.61 129.371C1218.76 129.511 1218.99 129.501 1219.13 129.351C1219.24 129.231 1219.25 129.051 1219.17 128.911L1220.17 127.82C1220.31 127.89 1220.49 127.86 1220.6 127.74C1220.74 127.59 1220.73 127.35 1220.58 127.209C1220.43 127.069 1220.19 127.079 1220.05 127.229C1219.94 127.35 1219.93 127.53 1220.01 127.67L1219.01 128.761C1218.87 128.691 1218.69 128.721 1218.58 128.841C1218.44 128.991 1218.45 129.231 1218.6 129.361L1218.61 129.371Z" fill="white"/>
<path d="M1218.25 125.989C1218.18 126.069 1218.22 126.029 1218.25 125.989V125.989Z" fill="white"/>
<path d="M1218.2 126.429L1215.7 129.161C1215.7 129.161 1215.66 129.271 1215.7 129.311L1217.05 130.552C1216.98 130.692 1217.01 130.872 1217.13 130.982C1217.28 131.123 1217.52 131.113 1217.66 130.962C1217.8 130.812 1217.79 130.572 1217.64 130.432C1217.52 130.322 1217.34 130.302 1217.2 130.382L1215.93 129.221L1218.36 126.569C1218.5 126.639 1218.68 126.609 1218.79 126.489C1218.93 126.339 1218.92 126.099 1218.77 125.958C1218.62 125.818 1218.38 125.828 1218.25 125.979C1218.28 125.938 1218.32 125.908 1218.25 125.979C1218.14 126.099 1218.13 126.279 1218.21 126.419L1218.2 126.429Z" fill="white"/>
<path d="M1212.89 128.08C1212.92 128.04 1212.96 128.01 1212.89 128.08V128.08Z" fill="white"/>
<path d="M1212.88 128.09C1212.88 128.09 1212.88 128.09 1212.89 128.08C1212.89 128.08 1212.89 128.08 1212.88 128.09Z" fill="white"/>
<path d="M1212.89 128.08C1213 127.96 1213.01 127.78 1212.93 127.64L1213.83 126.659C1213.97 126.729 1214.15 126.699 1214.26 126.579C1214.4 126.429 1214.39 126.189 1214.24 126.049C1214.09 125.908 1213.85 125.918 1213.71 126.069C1213.6 126.189 1213.58 126.369 1213.66 126.509L1212.76 127.49C1212.62 127.42 1212.44 127.45 1212.33 127.57C1212.19 127.72 1212.2 127.96 1212.35 128.1C1212.5 128.24 1212.74 128.23 1212.87 128.08H1212.89Z" fill="white"/>
<path d="M1210.84 127.45L1210.9 128.931C1210.7 129.021 1210.57 129.231 1210.58 129.461C1210.59 129.772 1210.85 130.012 1211.16 129.992C1211.47 129.982 1211.71 129.721 1211.69 129.411C1211.68 129.181 1211.53 128.991 1211.33 128.911L1211.27 127.43C1211.47 127.34 1211.6 127.129 1211.59 126.899C1211.58 126.589 1211.32 126.349 1211.01 126.369C1210.7 126.379 1210.46 126.639 1210.48 126.949C1210.48 127.179 1210.64 127.37 1210.84 127.45Z" fill="white"/>
<path d="M1208.27 128.44L1211.14 131.072C1211.14 131.072 1211.19 131.103 1211.22 131.103C1211.25 131.103 1211.28 131.092 1211.3 131.072L1215.49 126.489C1215.63 126.559 1215.81 126.529 1215.92 126.409C1216.06 126.259 1216.05 126.019 1215.9 125.878C1215.75 125.738 1215.51 125.748 1215.37 125.898C1215.26 126.019 1215.24 126.199 1215.33 126.339L1211.21 130.842L1208.43 128.29C1208.5 128.15 1208.47 127.97 1208.35 127.86C1208.2 127.72 1207.96 127.73 1207.83 127.88C1207.69 128.03 1207.7 128.27 1207.85 128.41C1207.97 128.52 1208.15 128.54 1208.29 128.46L1208.27 128.44Z" fill="white"/>
<path d="M1207.26 128.991L1209.33 130.892C1209.26 131.032 1209.29 131.213 1209.41 131.323C1209.56 131.463 1209.8 131.453 1209.94 131.303C1210.08 131.153 1210.07 130.912 1209.92 130.772C1209.8 130.662 1209.62 130.642 1209.48 130.722L1207.41 128.821C1207.48 128.681 1207.45 128.5 1207.33 128.39C1207.18 128.25 1206.94 128.26 1206.81 128.41C1206.67 128.561 1206.68 128.801 1206.83 128.941C1206.95 129.051 1207.13 129.071 1207.27 128.991H1207.26Z" fill="white"/>
<path d="M1209.92 130.782C1209.84 130.712 1209.88 130.752 1209.92 130.782V130.782Z" fill="white"/>
<path d="M1206.51 128.891C1206.51 128.891 1206.55 128.931 1206.56 128.931C1206.56 128.931 1206.54 128.911 1206.51 128.891Z" fill="white"/>
<path d="M1212.03 144.673L1211.94 142.592H1211.5L1211.6 144.913C1211.6 145.033 1211.71 145.124 1211.83 145.124L1217.26 144.883C1217.34 144.743 1217.42 144.593 1217.5 144.433L1212.03 144.673Z" fill="white"/>
<path d="M1211.66 136.417C1211.51 136.417 1211.37 136.396 1211.22 136.396L1211.36 139.579H1211.8L1211.66 136.406V136.417Z" fill="white"/>
<path d="M1225.22 144.532C1225.31 144.732 1225.52 144.862 1225.75 144.852C1226.06 144.842 1226.3 144.582 1226.28 144.272C1226.27 143.962 1226.01 143.722 1225.7 143.742C1225.47 143.752 1225.28 143.902 1225.2 144.102L1221.97 144.242C1221.91 144.392 1221.85 144.532 1221.78 144.692L1225.22 144.542V144.532Z" fill="white"/>
<path d="M1206.65 129.471C1206.72 129.271 1206.67 129.031 1206.5 128.871C1206.27 128.661 1205.92 128.681 1205.71 128.901C1205.5 129.131 1205.52 129.481 1205.74 129.691C1205.91 129.852 1206.15 129.882 1206.35 129.792L1210.29 133.404H1210.94L1206.65 129.471Z" fill="white"/>
<path d="M1223.15 150.337C1223 150.197 1222.76 150.207 1222.62 150.357C1222.48 150.508 1222.49 150.748 1222.64 150.888C1222.76 150.998 1222.94 151.008 1223.08 150.938L1227.4 154.891C1227.33 155.031 1227.36 155.211 1227.48 155.321C1227.63 155.461 1227.87 155.451 1228.01 155.301C1228.15 155.151 1228.14 154.911 1227.99 154.771C1227.87 154.661 1227.69 154.651 1227.55 154.731L1223.23 150.778C1223.3 150.638 1223.27 150.457 1223.15 150.347V150.337Z" fill="white"/>
<path d="M1224.52 146.154C1224.66 146.004 1224.65 145.764 1224.5 145.624C1224.35 145.484 1224.11 145.494 1223.97 145.644C1223.86 145.764 1223.85 145.944 1223.92 146.084L1221.24 149.016L1219.74 149.086C1219.68 149.086 1219.63 149.137 1219.64 149.197L1219.91 155.381C1219.91 155.381 1219.92 155.441 1219.94 155.461L1222.9 158.184C1222.83 158.324 1222.86 158.504 1222.98 158.614C1223.13 158.754 1223.37 158.744 1223.51 158.594C1223.65 158.444 1223.64 158.204 1223.49 158.064C1223.37 157.953 1223.19 157.943 1223.05 158.013L1220.12 155.321L1219.86 149.297L1221.3 149.237C1221.3 149.237 1221.36 149.227 1221.38 149.197L1224.1 146.234C1224.24 146.304 1224.42 146.274 1224.53 146.154H1224.52Z" fill="white"/>
<path d="M1219.22 147.986C1219.22 147.986 1219.27 148.046 1219.29 148.066C1219.52 148.276 1219.87 148.256 1220.08 148.036C1220.23 147.866 1220.27 147.625 1220.18 147.425L1220.96 146.564C1221.16 146.635 1221.4 146.585 1221.56 146.414C1221.77 146.184 1221.75 145.834 1221.53 145.624C1221.48 145.574 1221.41 145.534 1221.35 145.514C1221.23 145.734 1221.1 145.964 1220.95 146.194C1220.36 146.915 1219.79 147.515 1219.22 147.976V147.986Z" fill="white"/>
<path d="M1220.95 147.335C1220.81 147.485 1220.82 147.725 1220.97 147.866C1221.12 148.006 1221.36 147.996 1221.5 147.846C1221.61 147.725 1221.63 147.545 1221.54 147.405L1222.54 146.314C1222.68 146.384 1222.86 146.354 1222.97 146.234C1223.11 146.084 1223.1 145.844 1222.95 145.714C1222.8 145.574 1222.56 145.584 1222.42 145.734C1222.31 145.854 1222.3 146.034 1222.38 146.174L1221.38 147.265C1221.24 147.195 1221.06 147.225 1220.95 147.345V147.335Z" fill="white"/>
<path d="M1208.56 143.272L1202.56 143.532L1199.78 140.98C1199.85 140.78 1199.8 140.54 1199.63 140.38C1199.4 140.17 1199.05 140.19 1198.84 140.41C1198.63 140.64 1198.65 140.99 1198.87 141.2C1199.04 141.361 1199.28 141.391 1199.48 141.301L1202.33 143.913C1202.33 143.913 1202.43 143.973 1202.49 143.973L1208.67 143.702C1208.73 143.702 1208.78 143.672 1208.82 143.632L1209.78 142.582H1209.19L1208.56 143.272Z" fill="white"/>
<path d="M1202.91 145.393L1205.29 145.293C1205.34 145.443 1205.49 145.543 1205.65 145.543C1205.85 145.543 1206.01 145.363 1206.01 145.153C1206.01 144.953 1205.83 144.793 1205.62 144.803C1205.45 144.803 1205.32 144.923 1205.28 145.083L1202.9 145.183C1202.85 145.033 1202.7 144.933 1202.54 144.933C1202.33 144.933 1202.18 145.113 1202.18 145.323C1202.18 145.523 1202.36 145.683 1202.57 145.683C1202.74 145.683 1202.87 145.563 1202.91 145.403V145.393Z" fill="white"/>
<path d="M1208.55 136.967C1208.41 136.897 1208.23 136.927 1208.12 137.047C1207.98 137.197 1207.99 137.437 1208.14 137.577C1208.29 137.718 1208.53 137.708 1208.67 137.557C1208.78 137.437 1208.79 137.257 1208.71 137.117L1209.37 136.396H1209.07L1208.55 136.967Z" fill="white"/>
<path d="M1208.21 139.119C1208.36 139.259 1208.6 139.249 1208.74 139.099C1208.85 138.979 1208.86 138.798 1208.78 138.658L1209.78 137.568C1209.92 137.638 1210.1 137.608 1210.21 137.487C1210.35 137.337 1210.34 137.097 1210.19 136.957C1210.04 136.817 1209.8 136.827 1209.67 136.977C1209.56 137.097 1209.54 137.277 1209.63 137.417L1208.63 138.508C1208.49 138.438 1208.31 138.468 1208.2 138.588C1208.23 138.548 1208.27 138.508 1208.2 138.588C1208.13 138.668 1208.17 138.628 1208.2 138.588C1208.06 138.738 1208.07 138.979 1208.22 139.109L1208.21 139.119Z" fill="white"/>
<path d="M1205.55 130.092C1205.62 129.952 1205.59 129.771 1205.47 129.661C1205.32 129.521 1205.08 129.531 1204.94 129.681C1204.8 129.832 1204.81 130.072 1204.96 130.212C1205.08 130.322 1205.26 130.342 1205.4 130.262L1208.83 133.404H1209.15L1205.54 130.102L1205.55 130.092Z" fill="white"/>
<path d="M1206.84 137.217L1205.95 136.397H1205.87V136.316L1203.96 134.565C1204.03 134.425 1204 134.245 1203.88 134.135C1203.73 133.995 1203.49 134.005 1203.35 134.155C1203.21 134.305 1203.22 134.545 1203.37 134.685C1203.49 134.795 1203.67 134.815 1203.81 134.725L1206.77 137.447C1206.77 137.447 1206.82 137.477 1206.85 137.477C1206.88 137.477 1206.9 137.467 1206.93 137.437L1207.89 136.397H1207.59L1206.84 137.217Z" fill="white"/>
<path d="M1204.67 130.782C1204.74 130.642 1204.71 130.462 1204.59 130.352C1204.44 130.212 1204.2 130.222 1204.06 130.372C1203.92 130.522 1203.93 130.762 1204.08 130.902C1204.2 131.012 1204.38 131.022 1204.52 130.942L1207.59 133.754C1207.64 133.684 1207.68 133.624 1207.72 133.574L1204.67 130.772V130.782Z" fill="white"/>
<path d="M1207.09 133.865C1206.92 133.705 1206.68 133.675 1206.48 133.765L1205.25 132.634C1205.25 132.634 1205.15 132.574 1205.09 132.574L1204.06 132.614C1203.97 132.424 1203.76 132.283 1203.53 132.293C1203.22 132.303 1202.98 132.564 1203 132.874C1203.01 133.184 1203.27 133.424 1203.58 133.404C1203.81 133.404 1204 133.244 1204.08 133.044L1205.02 133.004L1206.19 134.075C1206.12 134.275 1206.17 134.515 1206.34 134.675C1206.49 134.815 1206.69 134.845 1206.87 134.795C1207.02 134.575 1207.15 134.375 1207.27 134.215C1207.26 134.085 1207.2 133.955 1207.09 133.855V133.865Z" fill="white"/>
<path d="M1207.09 133.865C1206.86 133.655 1207.32 134.075 1207.09 133.865V133.865Z" fill="white"/>
<path d="M1201.01 134.265C1201.07 134.315 1201.12 134.365 1201.01 134.265V134.265Z" fill="white"/>
<path d="M1201.01 134.265C1201.18 134.425 1201.42 134.445 1201.62 134.365L1204.78 137.257C1204.71 137.457 1204.76 137.698 1204.93 137.858C1205.16 138.068 1205.51 138.048 1205.72 137.828C1205.93 137.598 1205.91 137.247 1205.69 137.037C1205.52 136.877 1205.28 136.847 1205.08 136.937L1201.92 134.045C1201.99 133.835 1201.94 133.604 1201.77 133.444C1201.54 133.234 1201.19 133.254 1200.98 133.474C1200.77 133.704 1200.79 134.055 1201.01 134.265Z" fill="white"/>
<path d="M1200.4 136.056L1205.1 140.37C1205.03 140.51 1205.06 140.69 1205.18 140.8C1205.33 140.94 1205.57 140.93 1205.7 140.78C1205.84 140.63 1205.83 140.39 1205.68 140.26C1205.56 140.149 1205.38 140.139 1205.24 140.22L1200.54 135.906C1200.61 135.766 1200.58 135.586 1200.46 135.476C1200.31 135.336 1200.07 135.346 1199.93 135.496C1199.79 135.646 1199.8 135.886 1199.95 136.016C1200.07 136.126 1200.25 136.146 1200.39 136.066L1200.4 136.056Z" fill="white"/>
<path d="M1203.64 140.87C1203.79 141.01 1204.03 141 1204.17 140.85C1204.31 140.7 1204.3 140.46 1204.15 140.33C1204.03 140.22 1203.85 140.2 1203.71 140.28L1201.01 137.798C1201.08 137.658 1201.05 137.478 1200.93 137.367C1200.78 137.227 1200.54 137.237 1200.41 137.387C1200.27 137.538 1200.28 137.778 1200.43 137.918C1200.55 138.028 1200.73 138.048 1200.87 137.968L1203.57 140.45C1203.5 140.59 1203.53 140.77 1203.65 140.88L1203.64 140.87Z" fill="white"/>
<path d="M1207.04 139.269C1207.19 139.219 1207.29 139.069 1207.29 138.909C1207.29 138.708 1207.11 138.548 1206.9 138.548C1206.69 138.548 1206.54 138.728 1206.54 138.939C1206.54 139.109 1206.66 139.239 1206.82 139.279L1206.89 140.96C1206.96 140.85 1207.03 140.76 1207.1 140.66L1207.04 139.269Z" fill="white"/>
<path d="M1202.45 142.101L1199.15 139.069C1199.22 138.929 1199.19 138.749 1199.07 138.638C1198.92 138.498 1198.68 138.508 1198.54 138.658C1198.4 138.809 1198.41 139.049 1198.56 139.189C1198.68 139.299 1198.86 139.319 1199 139.229L1202.34 142.291C1202.34 142.291 1202.39 142.321 1202.42 142.321L1206.06 142.161C1206.11 142.081 1206.16 142.011 1206.22 141.931L1202.46 142.091L1202.45 142.101Z" fill="white"/>
<path d="M1198.4 147.144L1199.17 147.114C1199.22 147.264 1199.37 147.364 1199.54 147.364C1199.74 147.364 1199.9 147.184 1199.9 146.974C1199.9 146.764 1199.72 146.614 1199.51 146.624C1199.34 146.624 1199.21 146.744 1199.17 146.904L1198.4 146.934C1198.35 146.784 1198.2 146.684 1198.04 146.684C1197.84 146.684 1197.68 146.864 1197.68 147.074C1197.68 147.274 1197.86 147.434 1198.07 147.424C1198.24 147.424 1198.37 147.304 1198.41 147.144H1198.4Z" fill="white"/>
<path d="M1198.66 148.676L1201.14 148.566C1201.2 148.566 1201.25 148.516 1201.24 148.456L1201.17 146.915C1201.17 146.915 1201.16 146.855 1201.13 146.835L1198.23 144.183C1198.3 144.043 1198.27 143.863 1198.15 143.752C1198 143.612 1197.76 143.622 1197.62 143.772C1197.48 143.923 1197.49 144.163 1197.64 144.293C1197.57 144.223 1197.6 144.263 1197.64 144.293C1197.76 144.403 1197.94 144.423 1198.08 144.343L1200.94 146.965L1201 148.356L1198.63 148.456C1198.58 148.306 1198.43 148.196 1198.27 148.206C1198.06 148.206 1197.91 148.386 1197.91 148.596C1197.91 148.796 1198.09 148.957 1198.3 148.957C1198.47 148.957 1198.6 148.836 1198.64 148.676H1198.66Z" fill="white"/>
<path d="M1201.55 155.271L1201.47 153.45C1201.62 153.4 1201.72 153.25 1201.72 153.08C1201.72 152.88 1201.54 152.719 1201.33 152.719C1201.13 152.719 1200.97 152.9 1200.97 153.11C1200.97 153.28 1201.1 153.41 1201.25 153.45L1201.33 155.271C1201.18 155.322 1201.08 155.472 1201.08 155.632C1201.08 155.842 1201.26 155.992 1201.47 155.992C1201.67 155.992 1201.83 155.812 1201.83 155.602C1201.83 155.432 1201.71 155.302 1201.55 155.261V155.271Z" fill="white"/>
<path d="M1203.58 156.102C1203.57 155.872 1203.42 155.682 1203.22 155.602L1203.13 153.54C1203.33 153.45 1203.46 153.24 1203.45 153.01C1203.44 152.699 1203.18 152.459 1202.87 152.479C1202.56 152.489 1202.32 152.749 1202.34 153.06C1202.35 153.29 1202.5 153.48 1202.7 153.56L1202.79 155.622C1202.59 155.712 1202.46 155.922 1202.47 156.152C1202.48 156.462 1202.75 156.702 1203.05 156.682C1203.36 156.672 1203.6 156.412 1203.58 156.102Z" fill="white"/>
<path d="M1204.42 158.154L1206.27 156.132C1206.27 156.132 1206.33 156.032 1206.33 155.972L1206.13 151.338C1206.13 151.218 1206.02 151.128 1205.9 151.128L1199.74 151.398C1199.65 151.198 1199.44 151.068 1199.21 151.078C1198.9 151.088 1198.66 151.348 1198.68 151.659C1198.69 151.969 1198.95 152.209 1199.26 152.189C1199.49 152.189 1199.68 152.029 1199.76 151.829L1205.7 151.569L1205.89 155.902L1204.1 157.853C1203.9 157.783 1203.66 157.833 1203.5 158.004C1203.29 158.234 1203.31 158.584 1203.53 158.794C1203.76 159.004 1204.11 158.984 1204.32 158.764C1204.47 158.594 1204.5 158.354 1204.42 158.154Z" fill="white"/>
<path d="M1203.51 158.003C1203.51 158.003 1203.47 158.043 1203.46 158.053C1203.46 158.053 1203.48 158.023 1203.51 158.003Z" fill="white"/>
<path d="M1204.8 152.95C1204.8 152.749 1204.62 152.589 1204.41 152.589C1204.21 152.589 1204.05 152.769 1204.05 152.98C1204.05 153.15 1204.17 153.28 1204.33 153.32L1204.43 155.702C1204.28 155.752 1204.18 155.902 1204.18 156.062C1204.18 156.272 1204.36 156.422 1204.57 156.422C1204.77 156.422 1204.93 156.242 1204.93 156.032C1204.93 155.862 1204.81 155.732 1204.65 155.692L1204.55 153.31C1204.7 153.26 1204.8 153.11 1204.8 152.95Z" fill="white"/>
<path d="M1206.02 157.873C1206.16 157.943 1206.34 157.913 1206.45 157.793C1206.59 157.643 1206.58 157.403 1206.43 157.263C1206.28 157.123 1206.04 157.133 1205.91 157.283C1205.8 157.403 1205.78 157.583 1205.86 157.723L1204.91 158.764C1204.77 158.694 1204.6 158.724 1204.48 158.844C1204.34 158.994 1204.35 159.234 1204.5 159.365C1204.65 159.505 1204.89 159.495 1205.03 159.345C1205.14 159.224 1205.16 159.044 1205.07 158.904L1206.02 157.863V157.873Z" fill="white"/>
<path d="M1204.47 158.844C1204.5 158.814 1204.53 158.774 1204.47 158.844V158.844Z" fill="white"/>
<path d="M1210.02 161.877C1210.02 161.977 1210 162.077 1209.95 162.167C1209.66 162.207 1209.36 162.247 1209.05 162.277C1208.96 162.187 1208.91 162.057 1208.9 161.927C1208.89 161.696 1209.02 161.496 1209.22 161.396L1209.18 160.586L1207.8 159.315L1207.04 160.145C1207.13 160.345 1207.1 160.586 1206.94 160.756C1206.73 160.986 1206.38 160.996 1206.15 160.786C1205.92 160.576 1205.91 160.225 1206.12 159.995C1206.14 159.975 1206.15 159.955 1206.16 159.945C1206.16 159.945 1206.15 159.955 1206.14 159.965C1206.29 159.815 1206.52 159.765 1206.71 159.835L1207.62 158.834C1207.7 158.744 1207.84 158.744 1207.93 158.824L1209.54 160.305C1209.54 160.305 1209.61 160.395 1209.61 160.456L1209.65 161.356C1209.85 161.436 1210 161.626 1210.01 161.857L1210.02 161.877Z" fill="white"/>
<path d="M1210.76 160.105L1208.06 157.623C1208.13 157.483 1208.1 157.303 1207.98 157.193C1207.83 157.053 1207.59 157.063 1207.46 157.213C1207.32 157.363 1207.33 157.603 1207.48 157.743C1207.6 157.853 1207.78 157.873 1207.92 157.793L1210.62 160.275C1210.55 160.415 1210.58 160.596 1210.7 160.706C1210.63 160.636 1210.66 160.676 1210.7 160.706C1210.85 160.846 1211.09 160.836 1211.22 160.686C1211.36 160.535 1211.35 160.295 1211.2 160.155C1211.08 160.045 1210.9 160.035 1210.76 160.115V160.105Z" fill="white"/>
<path d="M1210.7 160.696C1210.74 160.726 1210.77 160.766 1210.7 160.696V160.696Z" fill="white"/>
<path d="M1207.89 152.81C1207.89 152.609 1207.71 152.449 1207.5 152.449C1207.29 152.449 1207.14 152.629 1207.14 152.84C1207.14 153.01 1207.27 153.14 1207.42 153.18L1207.54 155.922C1207.54 155.922 1207.55 155.982 1207.58 156.002L1210.54 158.724C1210.47 158.864 1210.5 159.044 1210.62 159.154C1210.77 159.295 1211.01 159.285 1211.15 159.134C1211.29 158.984 1211.28 158.744 1211.13 158.604C1211.01 158.494 1210.83 158.484 1210.69 158.564L1207.76 155.872L1207.64 153.18C1207.79 153.13 1207.89 152.98 1207.89 152.82V152.81Z" fill="white"/>
<path d="M1210.63 159.154C1210.67 159.184 1210.7 159.224 1210.63 159.154V159.154Z" fill="white"/>
<path d="M1209.45 155.582C1209.3 155.441 1209.06 155.451 1208.92 155.602C1208.78 155.752 1208.79 155.992 1208.94 156.132C1208.86 156.062 1208.9 156.092 1208.94 156.132C1209.06 156.242 1209.24 156.262 1209.38 156.182L1210.47 157.183C1210.4 157.323 1210.43 157.503 1210.55 157.613C1210.48 157.543 1210.51 157.583 1210.55 157.613C1210.7 157.753 1210.94 157.743 1211.08 157.593C1211.22 157.443 1211.21 157.203 1211.06 157.063C1210.94 156.953 1210.76 156.943 1210.62 157.023L1209.53 156.022C1209.6 155.882 1209.57 155.702 1209.45 155.592V155.582Z" fill="white"/>
<path d="M1210.56 157.603C1210.6 157.633 1210.64 157.673 1210.56 157.603V157.603Z" fill="white"/>
<path d="M1207.08 151.699C1206.85 151.489 1207.31 151.909 1207.08 151.699V151.699Z" fill="white"/>
<path d="M1207.08 151.698C1207.23 151.838 1207.43 151.868 1207.61 151.818C1207.26 151.398 1207.04 151.148 1206.96 151.048C1206.85 151.268 1206.9 151.528 1207.08 151.698Z" fill="white"/>
<path d="M1212.77 161.726C1212.63 161.756 1212.48 161.776 1212.34 161.806L1212.13 157.123C1212.2 157.213 1212.28 157.303 1212.36 157.393C1212.44 157.483 1212.52 157.573 1212.59 157.663L1212.77 161.726Z" fill="white"/>
<path d="M1213.91 159.935C1213.76 159.985 1213.66 160.135 1213.66 160.295C1213.66 160.505 1213.84 160.655 1214.05 160.645C1214.26 160.645 1214.41 160.465 1214.41 160.255C1214.41 160.085 1214.29 159.955 1214.13 159.915L1214.11 159.415C1214.03 159.324 1213.96 159.234 1213.88 159.144L1213.91 159.925V159.935Z" fill="white"/>
<path d="M1199.05 149.997C1199 149.847 1198.85 149.747 1198.69 149.747C1198.49 149.747 1198.33 149.927 1198.33 150.137C1198.33 150.337 1198.51 150.497 1198.72 150.487C1198.89 150.487 1199.02 150.367 1199.06 150.207L1206.92 149.867V149.647L1199.05 149.987V149.997Z" fill="white"/>
<path d="M1210.06 148.186C1210.06 148.186 1210.07 148.206 1210.08 148.216C1210.31 148.216 1210.54 148.196 1210.77 148.176C1210.78 148.136 1210.79 148.086 1210.79 148.046C1210.79 147.836 1210.61 147.686 1210.4 147.686C1210.23 147.686 1210.1 147.806 1210.06 147.966L1207.1 148.096C1207.71 148.176 1208.4 148.216 1209.18 148.226L1210.06 148.186Z" fill="white"/>
<path d="M1206.95 148.096L1203.03 148.266C1202.98 148.116 1202.83 148.016 1202.67 148.016C1202.47 148.016 1202.31 148.196 1202.31 148.406C1202.31 148.606 1202.49 148.766 1202.7 148.756C1202.87 148.756 1203 148.636 1203.04 148.476L1206.92 148.306V148.166L1206.95 148.086V148.096Z" fill="white"/>
<path d="M1216.82 155.562L1216.85 156.292C1216.93 156.382 1217 156.472 1217.08 156.562L1217.03 155.502C1217.03 155.502 1217.02 155.441 1216.99 155.421L1213.18 151.929C1213.48 152.289 1213.83 152.709 1214.23 153.19L1216.8 155.552L1216.82 155.562Z" fill="white"/>
<path d="M1212.34 150.808C1212.34 150.808 1212.25 150.748 1212.2 150.728C1212.27 150.818 1212.35 150.918 1212.45 151.048C1212.45 150.958 1212.41 150.878 1212.34 150.808Z" fill="white"/>
<path d="M1216.55 151.909L1214.55 150.067C1214.45 150.087 1214.34 150.117 1214.24 150.137C1214.17 150.147 1214.1 150.167 1214.03 150.177L1216.65 152.579C1216.65 152.579 1216.75 152.639 1216.81 152.639C1216.84 152.639 1216.87 152.639 1216.89 152.619C1216.97 152.579 1217.02 152.499 1217.02 152.409L1216.89 149.317C1216.89 149.317 1216.89 149.317 1216.89 149.307C1216.75 149.367 1216.61 149.427 1216.46 149.477L1216.57 151.909H1216.55Z" fill="white"/>
<path d="M1214.91 152.329C1214.84 152.469 1214.87 152.649 1214.99 152.759C1215.03 152.789 1215.07 152.829 1214.99 152.759C1215.14 152.899 1215.38 152.889 1215.51 152.739C1215.65 152.589 1215.64 152.349 1215.49 152.209C1215.37 152.099 1215.19 152.079 1215.05 152.159L1213.03 150.307C1212.93 150.307 1212.84 150.327 1212.74 150.337L1214.9 152.319L1214.91 152.329Z" fill="white"/>
<path d="M1219.86 159.845L1219.88 159.865C1219.89 159.875 1219.9 159.885 1219.91 159.905C1220.04 160.065 1220.18 160.215 1220.31 160.375C1220.37 160.355 1220.44 160.325 1220.48 160.265C1220.62 160.115 1220.61 159.875 1220.46 159.735C1220.34 159.625 1220.16 159.605 1220.02 159.685L1218.93 158.684C1219 158.544 1218.97 158.364 1218.85 158.254C1218.74 158.154 1218.59 158.134 1218.46 158.184C1218.55 158.294 1218.65 158.404 1218.74 158.524C1219.1 158.944 1219.47 159.375 1219.85 159.835L1219.86 159.845Z" fill="white"/>
<path d="M1223.56 161.456L1218.87 157.153C1218.94 157.013 1218.91 156.832 1218.79 156.722C1218.64 156.582 1218.4 156.592 1218.26 156.742C1218.12 156.893 1218.13 157.133 1218.28 157.273C1218.4 157.383 1218.58 157.393 1218.72 157.313L1223.41 161.616C1223.34 161.756 1223.37 161.936 1223.49 162.047C1223.53 162.087 1223.57 162.117 1223.49 162.047C1223.64 162.187 1223.88 162.177 1224.02 162.027C1224.16 161.876 1224.15 161.636 1224 161.496C1223.88 161.386 1223.7 161.366 1223.56 161.446V161.456Z" fill="white"/>
<path d="M1224.59 160.766L1218.68 155.351L1218.38 148.586C1218.24 148.676 1218.09 148.756 1217.95 148.826L1218.24 155.462C1218.24 155.522 1218.27 155.572 1218.31 155.612L1224.28 161.086C1224.21 161.286 1224.26 161.526 1224.43 161.686C1224.66 161.897 1225.01 161.877 1225.22 161.656C1225.43 161.426 1225.41 161.076 1225.19 160.866C1225.02 160.716 1224.78 160.676 1224.58 160.766H1224.59Z" fill="white"/>
<path d="M1211.97 146.224L1210.42 144.803C1210.33 144.723 1210.19 144.733 1210.11 144.813L1208.69 146.364L1202.69 146.625L1198.53 142.812C1198.6 142.611 1198.55 142.371 1198.38 142.211C1198.15 142.001 1197.8 142.021 1197.59 142.241C1197.38 142.471 1197.4 142.822 1197.62 143.032C1197.79 143.192 1198.03 143.222 1198.23 143.132L1202.46 147.005C1202.46 147.005 1202.56 147.065 1202.62 147.065L1208.8 146.795C1208.86 146.795 1208.91 146.765 1208.95 146.725L1210.28 145.274L1211.73 146.605C1211.73 146.605 1211.83 146.665 1211.89 146.665L1215.85 146.494C1216.03 146.354 1216.21 146.194 1216.37 146.034L1211.97 146.224Z" fill="white"/>
<path d="M1224.48 159.835C1224.48 160.035 1224.66 160.195 1224.87 160.195C1225.08 160.195 1225.23 160.015 1225.23 159.805C1225.23 159.635 1225.11 159.505 1224.95 159.465L1224.91 158.624C1225.06 158.574 1225.16 158.424 1225.16 158.264C1225.16 158.053 1224.98 157.903 1224.77 157.903C1224.57 157.903 1224.41 158.083 1224.41 158.294C1224.41 158.464 1224.53 158.594 1224.69 158.634L1224.73 159.475C1224.58 159.525 1224.48 159.675 1224.48 159.835Z" fill="white"/>
<path d="M1224.34 157.133C1224.11 156.923 1224.57 157.343 1224.34 157.133V157.133Z" fill="white"/>
<path d="M1223.19 152.149C1223.19 152.089 1223.16 152.039 1223.12 151.999L1221.89 150.868C1221.96 150.668 1221.91 150.428 1221.74 150.268C1221.51 150.057 1221.16 150.077 1220.95 150.298C1220.74 150.528 1220.76 150.878 1220.98 151.088C1221.15 151.238 1221.39 151.268 1221.59 151.188L1222.66 152.169L1221.33 153.62C1221.25 153.71 1221.25 153.85 1221.34 153.93L1224.19 156.542C1224.12 156.743 1224.17 156.983 1224.34 157.143C1224.57 157.353 1224.92 157.333 1225.13 157.113C1225.34 156.883 1225.32 156.532 1225.1 156.322C1224.93 156.172 1224.69 156.132 1224.49 156.222L1221.8 153.76L1223.13 152.309C1223.13 152.309 1223.19 152.209 1223.19 152.149Z" fill="white"/>
<path d="M1220.98 151.088C1220.87 150.988 1220.92 151.038 1220.98 151.088V151.088Z" fill="white"/>
<path d="M1221 151.108C1221 151.108 1220.99 151.098 1220.98 151.088C1220.98 151.088 1221 151.098 1221 151.108Z" fill="white"/>
<path d="M1225.17 155.361C1225.24 155.161 1225.19 154.921 1225.02 154.761C1224.79 154.551 1224.44 154.571 1224.23 154.791C1224.02 155.021 1224.04 155.371 1224.26 155.582C1224.43 155.742 1224.67 155.772 1224.87 155.682L1227.55 158.144L1226.57 159.214C1226.36 159.144 1226.13 159.194 1225.97 159.365C1225.76 159.595 1225.78 159.945 1226 160.155C1226.23 160.365 1226.58 160.345 1226.79 160.125C1226.95 159.955 1226.98 159.715 1226.89 159.515L1228.02 158.284C1228.1 158.194 1228.1 158.053 1228.01 157.973L1225.16 155.361H1225.17Z" fill="white"/>
<path d="M1224.33 153.91C1224.26 153.84 1224.29 153.88 1224.33 153.91V153.91Z" fill="white"/>
<path d="M1229.51 157.623L1229.46 156.512C1229.46 156.452 1229.41 156.402 1229.35 156.412L1227.85 156.482L1224.92 153.79C1224.99 153.65 1224.96 153.47 1224.84 153.36C1224.69 153.22 1224.45 153.23 1224.31 153.38C1224.17 153.53 1224.18 153.77 1224.33 153.91C1224.45 154.02 1224.63 154.03 1224.77 153.95L1227.73 156.672C1227.73 156.672 1227.78 156.702 1227.81 156.702L1229.25 156.642L1229.29 157.643C1229.14 157.693 1229.04 157.843 1229.04 158.003C1229.04 158.204 1229.22 158.364 1229.43 158.354C1229.64 158.354 1229.79 158.174 1229.79 157.963C1229.79 157.793 1229.67 157.663 1229.51 157.623Z" fill="white"/>
<path d="M1231.9 154.11L1226.13 148.826L1226.09 147.885C1226.29 147.795 1226.42 147.585 1226.41 147.355C1226.4 147.045 1226.14 146.805 1225.83 146.825C1225.52 146.835 1225.28 147.095 1225.3 147.405C1225.31 147.635 1225.46 147.825 1225.66 147.905L1225.71 148.936C1225.71 148.996 1225.74 149.046 1225.78 149.086L1231.61 154.431C1231.54 154.641 1231.59 154.871 1231.76 155.031C1231.99 155.241 1232.34 155.221 1232.55 155.001C1232.76 154.771 1232.74 154.421 1232.52 154.21C1232.35 154.05 1232.11 154.02 1231.91 154.11H1231.9Z" fill="white"/>
<path d="M1227.35 152.229C1227.5 152.369 1227.74 152.359 1227.87 152.209C1228.01 152.059 1228 151.819 1227.85 151.689C1227.73 151.579 1227.55 151.559 1227.41 151.639L1224.71 149.157C1224.78 149.017 1224.75 148.836 1224.63 148.726C1224.48 148.586 1224.24 148.596 1224.1 148.746C1223.96 148.896 1223.97 149.137 1224.12 149.277C1224.24 149.387 1224.42 149.397 1224.56 149.317L1227.26 151.799C1227.19 151.939 1227.22 152.119 1227.34 152.229H1227.35Z" fill="white"/>
<path d="M1234.58 147.986C1234.35 147.996 1234.16 148.146 1234.08 148.346L1232.6 148.406C1232.51 148.206 1232.3 148.076 1232.07 148.086C1231.76 148.096 1231.52 148.356 1231.54 148.666C1231.55 148.976 1231.81 149.216 1232.12 149.196C1232.35 149.186 1232.54 149.036 1232.62 148.836L1234.1 148.776C1234.19 148.976 1234.4 149.106 1234.63 149.096C1234.94 149.086 1235.18 148.826 1235.16 148.516C1235.15 148.206 1234.89 147.966 1234.58 147.986Z" fill="white"/>
<path d="M1234.85 146.615C1234.68 146.615 1234.55 146.735 1234.51 146.895L1232.03 147.005C1232.03 147.005 1231.97 147.015 1231.95 147.045L1230.47 148.656C1230.47 148.656 1230.43 148.766 1230.47 148.806L1233.31 151.418C1233.24 151.558 1233.27 151.739 1233.39 151.849C1233.54 151.989 1233.78 151.979 1233.92 151.829C1234.06 151.678 1234.05 151.438 1233.9 151.298C1233.78 151.188 1233.6 151.178 1233.46 151.248L1230.7 148.716L1232.07 147.215L1234.5 147.105C1234.55 147.255 1234.7 147.355 1234.86 147.355C1235.07 147.355 1235.22 147.175 1235.21 146.965C1235.21 146.765 1235.03 146.604 1234.82 146.604L1234.85 146.615Z" fill="white"/>
<path d="M1228.73 148.546C1228.67 148.616 1228.7 148.586 1228.73 148.546V148.546Z" fill="white"/>
<path d="M1230.76 147.425C1230.9 147.275 1230.89 147.035 1230.74 146.895C1230.59 146.755 1230.35 146.765 1230.21 146.915C1230.1 147.035 1230.09 147.215 1230.17 147.355L1229.17 148.446C1229.03 148.376 1228.85 148.406 1228.74 148.526C1228.61 148.676 1228.62 148.906 1228.77 149.046C1228.92 149.187 1229.16 149.177 1229.29 149.026C1229.4 148.906 1229.42 148.726 1229.34 148.586L1230.34 147.495C1230.48 147.565 1230.66 147.535 1230.77 147.415L1230.76 147.425Z" fill="white"/>
<path d="M1234.97 145.063C1234.8 145.063 1234.67 145.184 1234.63 145.344L1227.33 145.664C1227.27 145.664 1227.22 145.714 1227.23 145.774L1227.36 148.866C1227.36 148.866 1227.37 148.927 1227.4 148.947L1232.39 153.52C1232.32 153.66 1232.35 153.84 1232.47 153.95C1232.62 154.091 1232.86 154.081 1233 153.93C1233.14 153.78 1233.13 153.54 1232.98 153.4C1232.86 153.29 1232.68 153.28 1232.54 153.36L1227.59 148.816L1227.46 145.874L1234.65 145.564C1234.7 145.714 1234.85 145.814 1235.02 145.814C1235.22 145.814 1235.38 145.634 1235.37 145.424C1235.37 145.224 1235.19 145.063 1234.98 145.063H1234.97Z" fill="white"/>
<path d="M1234.96 143.322C1234.73 143.322 1234.54 143.482 1234.46 143.682L1227.25 143.993C1227.19 143.993 1227.14 144.023 1227.1 144.063L1222.67 148.906C1222.59 148.996 1222.6 149.137 1222.68 149.217L1230.31 156.222C1230.24 156.422 1230.29 156.662 1230.46 156.823C1230.69 157.033 1231.04 157.013 1231.25 156.793C1231.46 156.562 1231.44 156.212 1231.22 156.002C1231.05 155.842 1230.81 155.812 1230.61 155.902L1223.14 149.046L1227.36 144.433L1234.48 144.123C1234.57 144.313 1234.78 144.453 1235.01 144.443C1235.32 144.433 1235.56 144.173 1235.54 143.862C1235.53 143.552 1235.27 143.312 1234.96 143.332V143.322Z" fill="white"/>
<path d="M1230.47 156.823C1230.24 156.613 1230.7 157.033 1230.47 156.823V156.823Z" fill="white"/>
<path d="M1229.34 195.473C1229.4 197.555 1229.2 199.606 1228.56 201.598C1227.34 205.401 1224.82 207.823 1220.9 208.733C1218.1 209.384 1215.31 209.314 1212.56 208.473C1209.29 207.462 1207.13 205.251 1205.92 202.098C1205.29 200.447 1204.98 198.725 1204.92 196.964C1204.84 194.702 1204.88 192.441 1205.5 190.239C1205.96 188.608 1206.62 187.066 1207.66 185.715C1209.18 183.734 1211.2 182.493 1213.61 181.912C1216.16 181.292 1218.73 181.332 1221.26 182.092C1224.06 182.933 1226.14 184.634 1227.51 187.206C1228.63 189.318 1229.17 191.6 1229.33 193.972C1229.36 194.472 1229.33 194.983 1229.33 195.493L1229.34 195.473ZM1210.11 195.433C1210.2 196.604 1210.23 197.575 1210.36 198.535C1210.59 200.307 1211.27 201.878 1212.7 203.029C1214.92 204.82 1217.41 204.91 1219.94 203.9C1221.76 203.179 1222.85 201.678 1223.49 199.866C1224.22 197.795 1224.2 195.643 1223.99 193.501C1223.89 192.521 1223.66 191.55 1223.35 190.609C1222.71 188.648 1221.39 187.297 1219.41 186.646C1217.94 186.166 1216.47 186.226 1214.98 186.616C1213.68 186.946 1212.69 187.677 1211.9 188.718C1211.16 189.708 1210.68 190.849 1210.49 192.07C1210.31 193.251 1210.22 194.442 1210.11 195.443V195.433Z" fill="#45A6FF"/>
<path d="M1171.67 182.012H1176.43V208.113C1175.94 208.323 1172.74 208.393 1171.64 208.193V205.981C1171.43 206.191 1171.32 206.261 1171.26 206.361C1170.32 207.752 1168.95 208.403 1167.34 208.713C1164.9 209.183 1161.3 207.993 1159.61 204.83C1158.75 203.219 1158.26 201.517 1158.14 199.696C1157.98 197.244 1158.23 194.862 1159.35 192.631C1160.67 189.998 1162.84 188.607 1165.77 188.537C1167.56 188.497 1169.17 189.088 1170.48 190.379C1170.8 190.699 1171.15 190.989 1171.53 191.35C1171.53 191.179 1171.53 191.039 1171.53 190.889C1171.53 187.957 1171.53 185.025 1171.53 182.102C1171.58 182.072 1171.63 182.042 1171.67 182.012ZM1171.69 198.765C1171.71 197.724 1171.61 196.644 1171.24 195.613C1170.85 194.532 1170.17 193.671 1169.09 193.211C1167.13 192.39 1165 193.101 1163.96 194.942C1163.67 195.453 1163.44 196.043 1163.37 196.624C1163.24 197.644 1163.21 198.685 1163.22 199.716C1163.24 200.917 1163.62 202.028 1164.36 202.979C1165.59 204.59 1167.61 205.04 1169.36 204.079C1170.3 203.559 1170.86 202.748 1171.26 201.788C1171.66 200.827 1171.74 199.826 1171.69 198.755V198.765Z" fill="#FE7D33"/>
<path d="M1190.42 195.293H1185.88C1185.8 194.872 1185.76 194.532 1185.91 194.172C1186 193.942 1186.02 193.681 1186.07 193.431C1186.49 191.45 1187.67 190.089 1189.53 189.328C1191.25 188.627 1193.06 188.417 1194.89 188.557C1195.89 188.627 1196.91 188.798 1197.88 189.078C1200.25 189.748 1201.6 191.39 1202 193.791C1202.16 194.722 1202.24 195.673 1202.25 196.614C1202.28 199.796 1202.26 202.979 1202.26 206.161C1202.26 206.802 1202.26 207.442 1202.26 208.133C1202.1 208.183 1201.95 208.253 1201.81 208.253C1200.56 208.263 1199.32 208.273 1198.07 208.253C1197.57 208.253 1197.55 208.213 1197.45 207.712C1197.38 207.382 1197.34 207.042 1197.27 206.641C1197.1 206.762 1196.95 206.842 1196.82 206.962C1195.73 207.932 1194.42 208.413 1193.02 208.663C1191.61 208.923 1190.22 208.813 1188.84 208.413C1186.63 207.772 1185.27 206.031 1185.25 203.729C1185.25 203.019 1185.28 202.298 1185.4 201.598C1185.72 199.826 1186.79 198.625 1188.4 197.885C1189.61 197.334 1190.9 197.104 1192.2 196.904C1193.15 196.754 1194.1 196.594 1195.04 196.403C1195.4 196.333 1195.75 196.183 1196.08 196.033C1196.69 195.743 1197.04 195.273 1197.07 194.572C1197.1 193.871 1196.81 193.331 1196.21 193.031C1195.73 192.781 1195.18 192.611 1194.64 192.52C1194.15 192.44 1193.63 192.47 1193.12 192.52C1191.85 192.651 1191.09 193.421 1190.65 194.552C1190.57 194.762 1190.51 194.982 1190.42 195.283V195.293ZM1197.17 198.975C1196.12 199.546 1194.97 199.736 1193.83 200.016C1193.01 200.216 1192.22 200.537 1191.44 200.877C1190.84 201.137 1190.5 201.668 1190.33 202.298C1189.95 203.659 1190.66 205.13 1192.4 205.1C1192.65 205.1 1192.91 205.1 1193.16 205.1C1195.29 205.03 1197.14 203.159 1197.2 201.037C1197.22 200.377 1197.26 199.706 1197.29 199.046C1197.25 199.026 1197.21 199.005 1197.18 198.975H1197.17Z" fill="#FE7D34"/>
<path d="M1301.24 199.976H1288.35C1287.98 201.417 1289.21 203.809 1290.88 204.44C1292.81 205.17 1294.74 204.5 1295.84 202.628H1300.99C1300.89 202.899 1300.82 203.099 1300.74 203.299C1300.16 204.76 1299.34 206.051 1298.07 207.022C1296.24 208.403 1294.14 208.933 1291.88 208.783C1291.01 208.733 1290.14 208.563 1289.29 208.343C1286.58 207.632 1284.76 205.921 1283.89 203.259C1282.97 200.417 1282.83 197.514 1283.68 194.622C1284.73 191.029 1287.75 188.707 1291.51 188.587C1292.64 188.547 1293.77 188.567 1294.88 188.838C1297.57 189.508 1299.31 191.209 1300.27 193.751C1300.67 194.812 1300.97 195.893 1301.02 197.044C1301.04 197.594 1301.18 198.135 1301.23 198.675C1301.26 199.076 1301.23 199.486 1301.23 199.966L1301.24 199.976ZM1296.13 196.734C1296.03 196.213 1295.99 195.783 1295.87 195.363C1295.15 192.861 1292.38 192.04 1290.56 192.981C1289.02 193.771 1288.52 195.112 1288.28 196.724H1296.13V196.734Z" fill="#45A6FF"/>
<path d="M1144.05 189.859C1144.03 190.319 1144.01 190.779 1143.99 191.24C1143.98 191.3 1143.97 191.36 1143.95 191.41C1144.02 191.47 1144.14 191.58 1144.15 191.57C1144.28 191.44 1144.41 191.31 1144.52 191.16C1145.54 189.638 1147.03 188.898 1148.79 188.618C1150.09 188.407 1151.37 188.508 1152.61 188.948C1154.95 189.789 1156.09 191.57 1156.39 193.952C1156.48 194.682 1156.49 195.423 1156.49 196.164C1156.5 199.326 1156.49 202.488 1156.49 205.641C1156.49 206.462 1156.49 207.292 1156.49 208.193C1154.8 208.333 1153.15 208.263 1151.45 208.263C1151.44 208.003 1151.42 207.803 1151.42 207.602C1151.42 203.89 1151.42 200.177 1151.42 196.464C1151.42 195.743 1151.37 195.043 1151.08 194.362C1150.77 193.652 1150.26 193.151 1149.51 193.041C1148.79 192.931 1148.03 192.861 1147.31 192.951C1145.6 193.171 1144.5 194.452 1144.33 196.264C1144.3 196.604 1144.31 196.954 1144.31 197.304C1144.31 200.737 1144.31 204.18 1144.31 207.612C1144.31 207.793 1144.29 207.973 1144.27 208.213H1139.31C1139.29 208.083 1139.24 207.933 1139.24 207.783C1139.24 201.648 1139.24 195.513 1139.24 189.368C1139.24 189.298 1139.25 189.228 1139.26 189.158C1140.86 189.158 1142.46 189.158 1144.06 189.148C1144.06 189.238 1144.06 189.328 1144.06 189.418C1143.91 189.548 1143.89 189.688 1144.04 189.829L1144.05 189.859Z" fill="#FE7D33"/>
<path d="M1269.19 189.178V191.62C1269.39 191.43 1269.53 191.33 1269.62 191.199C1270.63 189.628 1272.14 188.868 1273.93 188.637C1275.01 188.497 1276.1 188.507 1277.17 188.788C1279.6 189.418 1280.94 191.069 1281.44 193.461C1281.55 193.972 1281.59 194.512 1281.59 195.042C1281.6 199.266 1281.59 203.489 1281.59 207.712C1281.59 207.873 1281.57 208.033 1281.56 208.243H1276.54C1276.52 208.063 1276.49 207.883 1276.49 207.712C1276.49 203.969 1276.51 200.237 1276.5 196.494C1276.5 195.963 1276.47 195.433 1276.36 194.912C1276.12 193.721 1275.33 193.061 1274.15 192.951C1273.47 192.881 1272.77 192.931 1272.09 193.041C1270.56 193.281 1269.8 194.322 1269.53 195.763C1269.42 196.323 1269.41 196.914 1269.41 197.484C1269.41 200.807 1269.41 204.13 1269.41 207.452C1269.41 207.702 1269.41 207.953 1269.41 208.253H1264.43V189.068C1266 189.048 1267.55 189.008 1269.11 189.088C1269.11 189.138 1269.14 189.168 1269.18 189.198L1269.19 189.178Z" fill="#45A6FF"/>
<path d="M1235.73 189.088V191.72C1235.92 191.52 1236.04 191.42 1236.11 191.3C1237.14 189.688 1238.66 188.858 1240.52 188.637C1241.83 188.477 1243.16 188.507 1244.42 188.988C1246.54 189.798 1247.65 191.44 1248.04 193.601C1248.15 194.232 1248.18 194.882 1248.18 195.523C1248.18 199.536 1248.18 203.549 1248.17 207.562C1248.17 207.762 1248.14 207.963 1248.13 208.143C1247.52 208.313 1243.8 208.323 1243.11 208.163C1243.11 208.043 1243.09 207.913 1243.09 207.772C1243.09 203.899 1243.09 200.016 1243.09 196.143C1243.09 195.683 1243.04 195.223 1242.93 194.772C1242.72 193.872 1242.17 193.251 1241.25 193.031C1239.97 192.711 1238.73 192.781 1237.57 193.451C1237.05 193.751 1236.67 194.182 1236.46 194.742C1236.18 195.503 1236 196.283 1236 197.104C1236.01 200.637 1236 204.16 1236 207.692C1236 207.852 1235.98 208.003 1235.97 208.153C1235.4 208.313 1231.78 208.323 1231.02 208.163V189.068H1235.75L1235.73 189.088Z" fill="#45A6FF"/>
<path d="M1297.32 224.025C1297.27 224.085 1297.21 224.145 1297.16 224.205C1295.81 225.817 1294.05 226.207 1292.1 225.797C1289.43 225.246 1287.85 223.235 1287.84 220.502C1287.83 217.36 1287.84 214.228 1287.84 211.085C1287.84 210.925 1287.86 210.765 1287.87 210.555H1291.78C1291.8 210.735 1291.83 210.905 1291.83 211.085C1291.83 213.897 1291.81 216.72 1291.81 219.532C1291.81 219.922 1291.83 220.322 1291.9 220.703C1292.13 221.914 1292.93 222.614 1294.16 222.644C1295.99 222.694 1297.38 221.593 1297.38 219.642C1297.38 216.87 1297.38 214.097 1297.38 211.335C1297.38 211.085 1297.38 210.835 1297.38 210.555H1301.21C1301.23 210.735 1301.26 210.905 1301.26 211.085C1301.26 216.349 1301.26 221.613 1301.26 226.877C1301.26 229.409 1299.57 231.671 1297.11 232.532C1296.07 232.892 1295 233.002 1293.91 232.972C1293 232.952 1292.14 232.782 1291.3 232.452C1290.06 231.961 1289.14 231.121 1288.56 229.94C1288.06 228.919 1287.76 227.848 1287.87 226.637H1291.51C1291.54 226.837 1291.57 227.038 1291.61 227.238C1291.82 228.339 1292.44 229.059 1293.54 229.359C1295.39 229.86 1296.98 228.899 1297.28 227.008C1297.43 226.047 1297.41 225.056 1297.46 224.075C1297.42 224.065 1297.38 224.045 1297.34 224.035L1297.32 224.025Z" fill="#FE7D33"/>
<path d="M1261.22 212.136C1261.34 212.046 1261.49 211.976 1261.58 211.856C1262.59 210.555 1263.99 210.084 1265.56 210.164C1268.29 210.315 1270.13 211.766 1271.1 214.288C1272.15 217.03 1272.13 219.812 1271.03 222.524C1270.12 224.766 1268.41 226.047 1265.94 226.187C1264.19 226.277 1262.74 225.626 1261.61 224.285C1261.55 224.215 1261.5 224.135 1261.43 224.075C1261.4 224.045 1261.35 224.025 1261.26 223.975C1261.08 224.476 1261.23 224.966 1261.21 225.446C1261.19 225.927 1261.21 226.417 1261.21 226.897C1261.21 227.408 1261.21 227.908 1261.21 228.419C1261.21 228.929 1261.21 229.429 1261.21 229.94C1261.21 230.42 1261.21 230.911 1261.21 231.391C1261.21 231.891 1261.21 232.402 1261.21 232.962C1259.89 233.082 1258.63 233.082 1257.34 232.962V210.635C1257.83 210.485 1260.31 210.455 1261.11 210.605V212.016C1261.11 212.016 1261.18 212.086 1261.22 212.126V212.136ZM1261.07 217.83C1261.07 218.901 1261.12 219.842 1261.47 220.733C1261.97 221.994 1263.07 222.734 1264.43 222.714C1265.9 222.694 1267 221.934 1267.45 220.613C1267.74 219.772 1267.83 218.901 1267.82 218.021C1267.81 216.95 1267.65 215.899 1267.04 214.978C1265.76 213.037 1263.22 213.017 1261.97 214.768C1261.28 215.729 1260.96 216.77 1261.06 217.83H1261.07Z" fill="#FE7D34"/>
<path d="M1286.18 225.757C1285.04 225.757 1283.96 225.757 1282.88 225.757C1282.56 225.757 1282.43 225.576 1282.41 225.276C1282.39 225.036 1282.37 224.786 1282.35 224.486C1282.18 224.576 1282.1 224.606 1282.03 224.666C1280.09 226.297 1277.87 226.537 1275.52 225.877C1273.83 225.396 1272.79 223.995 1272.74 222.244C1272.73 221.853 1272.74 221.453 1272.78 221.073C1273 219.141 1274.07 217.88 1275.9 217.34C1277.04 217 1278.24 216.84 1279.4 216.589C1279.98 216.469 1280.57 216.349 1281.15 216.179C1281.73 216.009 1282.09 215.599 1282.14 214.978C1282.19 214.348 1281.86 213.907 1281.32 213.657C1280.29 213.167 1279.22 213.127 1278.17 213.587C1277.57 213.857 1277.22 214.378 1277.03 214.998C1276.86 215.559 1276.86 215.549 1276.27 215.549C1275.44 215.539 1274.61 215.539 1273.78 215.529C1273.6 215.529 1273.42 215.508 1273.25 215.498C1273.19 213.227 1274.29 211.475 1276.35 210.725C1278.48 209.954 1280.65 209.944 1282.81 210.595C1284.99 211.245 1285.95 212.876 1286.17 215.028C1286.21 215.418 1286.22 215.809 1286.22 216.199C1286.22 219.241 1286.22 222.284 1286.23 225.336C1286.23 225.446 1286.21 225.566 1286.19 225.777L1286.18 225.757ZM1281.98 218.521C1281.21 218.751 1280.44 218.971 1279.68 219.231C1278.96 219.472 1278.23 219.682 1277.56 220.032C1276.85 220.392 1276.56 221.353 1276.78 222.144C1276.97 222.814 1277.58 223.235 1278.42 223.275C1280.04 223.345 1281.43 222.474 1282.03 221.003C1282.35 220.212 1282.28 219.382 1282.25 218.551C1282.18 218.311 1282.08 218.411 1281.98 218.531V218.521Z" fill="#FE7D34"/>
<path d="M1132.14 182.353H1137.39V208.223H1132.14C1132.14 208.223 1132.12 208.203 1132.11 208.183C1132.1 208.163 1132.07 208.143 1132.07 208.133C1132.06 207.993 1132.04 207.862 1132.04 207.722C1132.04 199.326 1132.04 190.929 1132.04 182.533C1132.04 182.493 1132.08 182.453 1132.14 182.353Z" fill="#FE7D33"/>
<path d="M1250.27 182.012C1251.75 182.012 1253.24 181.992 1254.72 181.992C1254.85 181.992 1254.98 182.052 1255.12 182.082L1255.15 182.112C1255.18 182.433 1255.22 182.753 1255.22 183.063C1255.22 183.754 1255.16 184.444 1255.16 185.135C1255.16 192.701 1255.16 200.266 1255.16 207.832C1255.16 207.942 1255.13 208.053 1255.1 208.263C1253.48 208.283 1251.88 208.283 1250.21 208.263C1250.19 208.063 1250.16 207.882 1250.16 207.712C1250.16 199.776 1250.16 191.84 1250.16 183.904C1250.16 183.303 1250.16 182.703 1250.16 182.102C1250.2 182.072 1250.24 182.042 1250.28 182.012H1250.27Z" fill="#45A6FF"/>
<path d="M1262.29 189.178C1262.29 189.548 1262.31 189.918 1262.31 190.279C1262.31 195.743 1262.31 201.207 1262.31 206.672C1262.31 207.172 1262.27 207.672 1262.25 208.263C1260.56 208.293 1258.94 208.283 1257.26 208.263V189.138C1257.71 188.988 1260.77 188.938 1262.19 189.058C1262.22 189.098 1262.26 189.138 1262.29 189.168V189.178Z" fill="#45A6FF"/>
<path d="M1183.55 208.233H1178.63V189.078H1183.55V208.233Z" fill="#FE7D33"/>
<path d="M1259.82 187.186C1258.43 185.805 1257.07 184.464 1255.67 183.063C1257.04 181.672 1258.41 180.291 1259.82 178.86C1261.18 180.231 1262.53 181.602 1263.92 183.013C1262.54 184.424 1261.2 185.785 1259.82 187.186Z" fill="#FE7D34"/>
<path d="M1185.56 183.233C1184.19 184.644 1182.87 185.995 1181.59 187.326C1180.19 185.975 1178.81 184.634 1177.36 183.233C1178.8 181.842 1180.19 180.501 1181.59 179.15C1182.88 180.471 1184.21 181.842 1185.57 183.233H1185.56Z" fill="#45A6FF"/>
<path d="M1144.06 189.168C1142.46 189.168 1140.86 189.168 1139.26 189.178C1139.41 189.108 1139.55 188.968 1139.7 188.968C1141.03 188.948 1142.36 188.948 1143.7 188.968C1143.82 188.968 1143.94 189.098 1144.06 189.168Z" fill="#FBA16E"/>
<path d="M1144.05 189.858C1143.9 189.718 1143.92 189.578 1144.07 189.448C1144.07 189.588 1144.06 189.718 1144.05 189.858Z" fill="#FBA16E"/>
<path d="M1171.67 182.012C1171.67 182.012 1171.57 182.072 1171.53 182.102C1171.58 182.072 1171.63 182.042 1171.67 182.012Z" fill="#E9A482"/>
<path d="M1250.27 182.012C1250.27 182.012 1250.19 182.072 1250.15 182.102C1250.19 182.072 1250.23 182.042 1250.27 182.012Z" fill="#7BB8EB"/>
<path d="M1262.29 189.178C1262.29 189.178 1262.22 189.098 1262.19 189.068C1262.22 189.108 1262.26 189.148 1262.29 189.178Z" fill="#75BAF1"/>
<path d="M1269.19 189.178C1269.19 189.178 1269.13 189.118 1269.12 189.068C1269.14 189.108 1269.17 189.138 1269.19 189.178Z" fill="#8CB8DB"/>
<path d="M1255.15 182.112L1255.12 182.082L1255.16 182.072L1255.15 182.112Z" fill="#8CB8DB"/>
<path d="M1143.96 191.42C1143.97 191.36 1143.98 191.3 1144 191.25C1143.99 191.31 1143.98 191.37 1143.96 191.42Z" fill="#FBA16E"/>
<path d="M1197.28 199.036C1197.28 199.036 1197.2 199.006 1197.17 198.966C1197.21 198.986 1197.25 199.006 1197.28 199.036Z" fill="#FBA16E"/>
</g>
<defs>
<filter id="filter0_d_262_2" x="1123.46" y="78.6182" width="186.38" height="163.014" filterUnits="userSpaceOnUse" color-interpolation-filters="sRGB">
<feFlood flood-opacity="0" result="BackgroundImageFix"/>
<feColorMatrix in="SourceAlpha" type="matrix" values="0 0 0 0 0 0 0 0 0 0 0 0 0 0 0 0 0 0 127 0" result="hardAlpha"/>
<feOffset/>
<feGaussianBlur stdDeviation="4.29"/>
<feColorMatrix type="matrix" values="0 0 0 0 0 0 0 0 0 0 0 0 0 0 0 0 0 0 0.4 0"/>
<feBlend mode="normal" in2="BackgroundImageFix" result="effect1_dropShadow_262_2"/>
<feBlend mode="normal" in="SourceGraphic" in2="effect1_dropShadow_262_2" result="shape"/>
</filter>
<linearGradient id="paint0_linear_262_2" x1="1215.15" y1="65.6014" x2="1215.15" y2="175.217" gradientUnits="userSpaceOnUse">
<stop offset="0.37" stop-color="#45A6FF" stop-opacity="0.5"/>
<stop offset="0.49" stop-color="#8298BB" stop-opacity="0.67"/>
<stop offset="0.6" stop-color="#B78C81" stop-opacity="0.81"/>
<stop offset="0.69" stop-color="#DE8456" stop-opacity="0.91"/>
<stop offset="0.77" stop-color="#F67E3C" stop-opacity="0.98"/>
<stop offset="0.81" stop-color="#FF7D33"/>
</linearGradient>
<linearGradient id="paint1_linear_262_2" x1="1215.59" y1="136.006" x2="1215.59" y2="140.23" gradientUnits="userSpaceOnUse">
<stop offset="0.37" stop-color="#45A6FF" stop-opacity="0.5"/>
<stop offset="0.49" stop-color="#8298BB" stop-opacity="0.67"/>
<stop offset="0.6" stop-color="#B78C81" stop-opacity="0.81"/>
<stop offset="0.69" stop-color="#DE8456" stop-opacity="0.91"/>
<stop offset="0.77" stop-color="#F67E3C" stop-opacity="0.98"/>
<stop offset="0.81" stop-color="#FF7D33"/>
</linearGradient>
<linearGradient id="paint2_linear_262_2" x1="1215.83" y1="141.09" x2="1215.83" y2="148.696" gradientUnits="userSpaceOnUse">
<stop offset="0.37" stop-color="#45A6FF" stop-opacity="0.5"/>
<stop offset="0.49" stop-color="#8298BB" stop-opacity="0.67"/>
<stop offset="0.6" stop-color="#B78C81" stop-opacity="0.81"/>
<stop offset="0.69" stop-color="#DE8456" stop-opacity="0.91"/>
<stop offset="0.77" stop-color="#F67E3C" stop-opacity="0.98"/>
<stop offset="0.81" stop-color="#FF7D33"/>
</linearGradient>
<linearGradient id="paint3_linear_262_2" x1="1234.01" y1="77.7308" x2="1234.01" y2="174.647" gradientUnits="userSpaceOnUse">
<stop offset="0.37" stop-color="#45A6FF" stop-opacity="0.5"/>
<stop offset="0.49" stop-color="#8298BB" stop-opacity="0.67"/>
<stop offset="0.6" stop-color="#B78C81" stop-opacity="0.81"/>
<stop offset="0.69" stop-color="#DE8456" stop-opacity="0.91"/>
<stop offset="0.77" stop-color="#F67E3C" stop-opacity="0.98"/>
<stop offset="0.81" stop-color="#FF7D33"/>
</linearGradient>
<linearGradient id="paint4_linear_262_2" x1="1247.26" y1="108.425" x2="1247.26" y2="172.575" gradientUnits="userSpaceOnUse">
<stop offset="0.37" stop-color="#45A6FF" stop-opacity="0.5"/>
<stop offset="0.49" stop-color="#8298BB" stop-opacity="0.67"/>
<stop offset="0.6" stop-color="#B78C81" stop-opacity="0.81"/>
<stop offset="0.69" stop-color="#DE8456" stop-opacity="0.91"/>
<stop offset="0.77" stop-color="#F67E3C" stop-opacity="0.98"/>
<stop offset="0.81" stop-color="#FF7D33"/>
</linearGradient>
<linearGradient id="paint5_linear_262_2" x1="1198.68" y1="77.5506" x2="1198.68" y2="175.467" gradientUnits="userSpaceOnUse">
<stop offset="0.37" stop-color="#45A6FF" stop-opacity="0.5"/>
<stop offset="0.49" stop-color="#8298BB" stop-opacity="0.67"/>
<stop offset="0.6" stop-color="#B78C81" stop-opacity="0.81"/>
<stop offset="0.69" stop-color="#DE8456" stop-opacity="0.91"/>
<stop offset="0.77" stop-color="#F67E3C" stop-opacity="0.98"/>
<stop offset="0.81" stop-color="#FF7D33"/>
</linearGradient>
<linearGradient id="paint6_linear_262_2" x1="1215.5" y1="145.424" x2="1215.5" y2="159.284" gradientUnits="userSpaceOnUse">
<stop offset="0.37" stop-color="#45A6FF" stop-opacity="0.5"/>
<stop offset="0.49" stop-color="#8298BB" stop-opacity="0.67"/>
<stop offset="0.6" stop-color="#B78C81" stop-opacity="0.81"/>
<stop offset="0.69" stop-color="#DE8456" stop-opacity="0.91"/>
<stop offset="0.77" stop-color="#F67E3C" stop-opacity="0.98"/>
<stop offset="0.81" stop-color="#FF7D33"/>
</linearGradient>
<linearGradient id="paint7_linear_262_2" x1="1185.78" y1="108.555" x2="1185.78" y2="172.495" gradientUnits="userSpaceOnUse">
<stop offset="0.37" stop-color="#45A6FF" stop-opacity="0.5"/>
<stop offset="0.49" stop-color="#8298BB" stop-opacity="0.67"/>
<stop offset="0.6" stop-color="#B78C81" stop-opacity="0.81"/>
<stop offset="0.69" stop-color="#DE8456" stop-opacity="0.91"/>
<stop offset="0.77" stop-color="#F67E3C" stop-opacity="0.98"/>
<stop offset="0.81" stop-color="#FF7D33"/>
</linearGradient>
<linearGradient id="paint8_linear_262_2" x1="1213.32" y1="149.247" x2="1213.32" y2="154.501" gradientUnits="userSpaceOnUse">
<stop offset="0.37" stop-color="#45A6FF" stop-opacity="0.5"/>
<stop offset="0.49" stop-color="#8298BB" stop-opacity="0.67"/>
<stop offset="0.6" stop-color="#B78C81" stop-opacity="0.81"/>
<stop offset="0.69" stop-color="#DE8456" stop-opacity="0.91"/>
<stop offset="0.77" stop-color="#F67E3C" stop-opacity="0.98"/>
<stop offset="0.81" stop-color="#FF7D33"/>
</linearGradient>
</defs>
</svg>
